<?xml version="1.0" encoding="utf-8"?>
<!-- Generated by IcoMoon.io -->
<!DOCTYPE svg PUBLIC "-//W3C//DTD SVG 1.1//EN" "http://www.w3.org/Graphics/SVG/1.1/DTD/svg11.dtd">
<svg version="1.1" xmlns="http://www.w3.org/2000/svg" xmlns:xlink="http://www.w3.org/1999/xlink" width="768" height="768" viewBox="0 0 768 768">
<g id="icomoon-ignore">
</g>
<path d="M384 352.5c18 0 31.5 13.5 31.5 31.5s-13.5 31.5-31.5 31.5-31.5-13.5-31.5-31.5 13.5-31.5 31.5-31.5zM384 528c79.5 0 144-64.5 144-144s-64.5-144-144-144-144 64.5-144 144 64.5 144 144 144zM384 64.5c177 0 319.5 142.5 319.5 319.5s-142.5 319.5-319.5 319.5-319.5-142.5-319.5-319.5 142.5-319.5 319.5-319.5z"></path>
</svg>
