<?xml version="1.0" encoding="utf-8"?>
<!-- Generated by IcoMoon.io -->
<!DOCTYPE svg PUBLIC "-//W3C//DTD SVG 1.1//EN" "http://www.w3.org/Graphics/SVG/1.1/DTD/svg11.dtd">
<svg version="1.1" xmlns="http://www.w3.org/2000/svg" xmlns:xlink="http://www.w3.org/1999/xlink" width="768" height="768" viewBox="0 0 768 768">
<g id="icomoon-ignore">
</g>
<path d="M576 607.5v-45c0-64.5-127.5-99-192-99s-192 34.5-192 99v45h384zM384 223.5c-52.5 0-96 43.5-96 96s43.5 96 96 96 96-43.5 96-96-43.5-96-96-96zM384 96c-18 0-31.5 13.5-31.5 31.5s13.5 33 31.5 33 31.5-15 31.5-33-13.5-31.5-31.5-31.5zM607.5 96c34.5 0 64.5 30 64.5 64.5v447c0 34.5-30 64.5-64.5 64.5h-447c-34.5 0-64.5-30-64.5-64.5v-447c0-34.5 30-64.5 64.5-64.5h133.5c13.5-37.5 48-64.5 90-64.5s76.5 27 90 64.5h133.5z"></path>
</svg>
