<?xml version="1.0" encoding="utf-8"?>
<!-- Generated by IcoMoon.io -->
<!DOCTYPE svg PUBLIC "-//W3C//DTD SVG 1.1//EN" "http://www.w3.org/Graphics/SVG/1.1/DTD/svg11.dtd">
<svg version="1.1" xmlns="http://www.w3.org/2000/svg" xmlns:xlink="http://www.w3.org/1999/xlink" width="768" height="768" viewBox="0 0 768 768">
<g id="icomoon-ignore">
</g>
<path d="M607.5 607.5v-127.5h64.5v127.5c0 34.5-30 64.5-64.5 64.5h-127.5v-64.5h127.5zM607.5 96c34.5 0 64.5 30 64.5 64.5v127.5h-64.5v-127.5h-127.5v-64.5h127.5zM160.5 160.5v127.5h-64.5v-127.5c0-34.5 30-64.5 64.5-64.5h127.5v64.5h-127.5zM160.5 480v127.5h127.5v64.5h-127.5c-34.5 0-64.5-30-64.5-64.5v-127.5h64.5zM384 256.5c70.5 0 127.5 57 127.5 127.5s-57 127.5-127.5 127.5-127.5-57-127.5-127.5 57-127.5 127.5-127.5z"></path>
</svg>
