<?xml version="1.0" encoding="utf-8"?>
<!-- Generated by IcoMoon.io -->
<!DOCTYPE svg PUBLIC "-//W3C//DTD SVG 1.1//EN" "http://www.w3.org/Graphics/SVG/1.1/DTD/svg11.dtd">
<svg version="1.1" xmlns="http://www.w3.org/2000/svg" xmlns:xlink="http://www.w3.org/1999/xlink" width="964" height="1024" viewBox="0 0 964 1024">
<g id="icomoon-ignore">
</g>
<path fill="#000" d="M866 0.001h-768.001c-52.799 0-96 43.2-96 96v832c0 52.799 43.2 96 96 96h768.001c52.799 0 96-43.2 96-96v-832c0-52.799-43.2-96-96-96zM833.999 896.001h-703.999v-768.001h703.999zM257.999 576h211.998v64h-211.998zM257.999 704.003h211.998v64h-211.998zM321.998 288.002c0-53.021 42.98-96 96-96s96 42.98 96 96c0 53.021-42.98 96-96 96s-96-42.98-96-96zM481.999 384.002h-127.999c-52.799 0-96 28.8-96 64v64h320.001v-64c0-35.2-43.2-64-96-64z"></path>
<path fill="#000" d="M579.366 660.918c5.424 5.403 26.276 27.429 26.276 27.429l11.562-11.929-18.125-18.731 34.798-36.965c0 0-15.716-15.318-8.841-9.221 6.577-24.408 0.579-51.657-17.96-70.841-18.392-19.030-44.493-25.277-67.959-18.721l39.76 41.076-10.457 40.296-38.935 10.755-39.759-41.083c-6.339 24.259-0.319 51.25 18.108 70.285 19.318 19.977 47.149 25.852 71.5 17.631zM711.941 700.87l-47.951 47.383 79.095 81.957c6.453 6.7 14.955 10.035 23.435 10.035 8.434 0 16.916-3.331 23.423-10.035 12.937-13.39 12.937-35.065 0-48.445l-77.984-80.886zM816.437 563.408l-50.373-52.048-148.465 153.508 18.125 18.731-88.873 91.858-20.306 10.858-28.69 46.819 7.297 7.575 45.296-29.672 10.495-21.006 88.873-91.845 18.145 18.731 148.465-153.508z"></path>
</svg>
