<svg xmlns="http://www.w3.org/2000/svg" width="24" height="24" viewBox="0 0 24 24"><path d="M23.28 10.8H19.2V6.72C19.2 6 18.72 6 18 6s-1.2 0-1.2.72v4.08h-4.08c-.72 0-.72.48-.72 1.2s0 1.2.72 1.2h4.08v4.08c0 .72.48.72 1.2.72s1.2 0 1.2-.72V13.2h4.08c.72 0 .72-.48.72-1.2s0-1.2-.72-1.2zm-14.4 0H.72C0 10.8 0 11.28 0 12s0 1.2.72 1.2h8.16c.72 0 .72-.48.72-1.2s0-1.2-.72-1.2zm0 6H.72C0 16.8 0 17.28 0 18s0 1.2.72 1.2h8.16c.72 0 .72-.48.72-1.2s0-1.2-.72-1.2zm0-12H.72C0 4.8 0 5.28 0 6s0 1.2.72 1.2h8.16c.72 0 .72-.48.72-1.2s0-1.2-.72-1.2z"/></svg>