<svg xmlns="http://www.w3.org/2000/svg" width="25" height="24" viewBox="0 0 25 24"><path d="M4.286 3.429q0 .964-.857 1.473v16.955q0 .174-.127.301t-.301.127h-.857q-.174 0-.301-.127t-.127-.301V4.902Q.859 4.393.859 3.429q0-.71.502-1.212t1.212-.502 1.212.502.502 1.212zM24 4.286v10.219q0 .335-.167.516t-.529.368q-2.879 1.554-4.942 1.554-.817 0-1.654-.295t-1.453-.643-1.547-.643-1.908-.295q-2.571 0-6.214 1.955-.228.121-.442.121-.348 0-.603-.254t-.254-.603V6.349q0-.429.415-.737.281-.188 1.058-.576 3.161-1.607 5.638-1.607 1.433 0 2.679.388t2.933 1.179q.509.254 1.179.254.723 0 1.574-.281t1.473-.629 1.179-.629.73-.281q.348 0 .603.254t.254.603z"/></svg>