<svg xmlns="http://www.w3.org/2000/svg" width="32" height="24" viewBox="0 0 32 24"><path d="M24.479 13.171s-3.444-3.511-8.19-3.511c-4.637 0-9.221 3.511-9.221 3.511l-2.575-1.075v3.153c.406.138.703.511.703.964 0 .457-.303.831-.715.966l.761 2.123H2.995l.768-2.141a1.028 1.028 0 0 1-.019-1.883v-3.494l-3.745-1.562 16.477-7.396 15.117 7.489-7.115 2.856zm-8.377-1.733c4.774 0 7.114 2.527 7.114 2.527v5.242s-2.434 1.966-7.489 1.966-6.74-1.966-6.74-1.966v-5.243s2.34-2.527 7.115-2.527zm-.094 8.612c3.309 0 5.992-.671 5.992-1.498s-2.683-1.498-5.992-1.498-5.991.671-5.991 1.498 2.682 1.498 5.991 1.498z"/></svg>