<svg xmlns="http://www.w3.org/2000/svg" width="22" height="24" viewBox="0 0 22 24"><path d="M18.857 13.286v6.429q0 .348-.254.603t-.603.254h-5.143v-5.143H9.428v5.143H4.285q-.348 0-.603-.254t-.254-.603v-6.429q0-.013.007-.04t.007-.04l7.701-6.348 7.701 6.348q.013.027.013.08zm2.987-.924l-.83.991q-.107.121-.281.147h-.04q-.174 0-.281-.094l-9.268-7.728-9.268 7.728q-.161.107-.321.094-.174-.027-.281-.147l-.83-.991q-.107-.134-.094-.315t.147-.288l9.629-8.022q.429-.348 1.018-.348t1.018.348l3.268 2.732V3.857q0-.188.121-.308t.308-.121h2.571q.188 0 .308.121t.121.308v5.464l2.933 2.438q.134.107.147.288t-.094.315z"/></svg>