<svg xmlns="http://www.w3.org/2000/svg" width="21" height="24" viewBox="0 0 21 24"><path d="M20.571 12q0 2.089-.817 3.991t-2.196 3.281-3.281 2.196-3.991.817-3.991-.817-3.281-2.196-2.196-3.281T.001 12q0-2.438 1.078-4.594T4.112 3.79q.576-.429 1.279-.335t1.118.67q.429.563.328 1.266t-.663 1.132q-1.313.991-2.029 2.424t-.717 3.054q0 1.393.542 2.658t1.467 2.19 2.19 1.467 2.658.542 2.658-.542 2.19-1.467 1.467-2.19.542-2.658q0-1.621-.717-3.054t-2.029-2.424q-.563-.429-.663-1.132t.328-1.266q.415-.576 1.125-.67t1.272.335q1.955 1.46 3.033 3.616T20.569 12zM12 1.714v8.571q0 .696-.509 1.205t-1.205.509-1.205-.509-.509-1.205V1.714q0-.696.509-1.205T10.286 0t1.205.509T12 1.714z"/></svg>