<svg xmlns="http://www.w3.org/2000/svg" width="24" height="24" viewBox="0 0 24 24"><path d="M14.826 6.999c1.08.25 1.939 1.17 2.189 2.175.086.47.495.825.986.825.55 0 1-.45 1-1 0-.72-.605-1.815-1.43-2.635-.81-.8-1.775-1.365-2.57-1.365-.55 0-1 .465-1 1.015 0 .489.355.9.825.985zM1.081 20.109c-.775.775-.775 2.035 0 2.809s2.035.775 2.805 0l5.744-5.74a8.692 8.692 0 0 0 4.62 1.321c4.835 0 8.75-3.915 8.75-8.75S19.085.999 14.25.999a8.747 8.747 0 0 0-7.429 13.37l-5.74 5.74zm6.92-10.36c0-3.45 2.8-6.25 6.25-6.25s6.25 2.8 6.25 6.25-2.8 6.25-6.25 6.25a6.254 6.254 0 0 1-6.25-6.25z"/></svg>