<svg xmlns="http://www.w3.org/2000/svg" viewBox="0 0 450 450"><path d="M375 420c-8.271 0-15-6.728-15-15h-30c0 8.272-6.729 15-15 15s-15-6.728-15-15h-30c0 8.272-6.729 15-15 15s-15-6.728-15-15h-30c0 8.272-6.729 15-15 15s-15-6.728-15-15h-30c0 8.272-6.729 15-15 15s-15-6.728-15-15H90c0 8.272-6.729 15-15 15s-15-6.728-15-15H30c0 24.814 20.187 45 45 45 11.517 0 22.032-4.353 30-11.495 7.968 7.142 18.483 11.495 30 11.495s22.032-4.353 30-11.495c7.968 7.142 18.483 11.495 30 11.495s22.032-4.353 30-11.495c7.968 7.142 18.483 11.495 30 11.495s22.032-4.353 30-11.495c7.968 7.142 18.483 11.495 30 11.495s22.032-4.353 30-11.495c7.968 7.142 18.483 11.495 30 11.495 24.813 0 45-20.186 45-45h-30c0 8.272-6.729 15-15 15zM390 175.667V120h-30V60h-90V45c0-24.813-20.187-45-45-45s-45 20.187-45 45v15H90v60H60v55.667L225 139l165 36.667zM300 90h30v30h-30V90zm-60 0h30v30h-30V90zm-90 30h-30V90h30v30zm60 0h-30V90h30v30z"/><path d="M78.743 385H210V172.968L28.313 213.342l1.818 13.64c.632 4.735 12.316 89.192 48.612 158.018zM240 385h131.257c36.296-68.826 47.98-153.283 48.612-158.018l1.818-13.64L240 172.968V385z"/></svg>