<svg xmlns="http://www.w3.org/2000/svg" width="24" height="24" viewBox="0 0 24 24"><path d="M6.716 10.899c.395.394 1.915 1.999 1.915 1.999l.843-.869-1.321-1.365 2.536-2.694s-1.145-1.116-.644-.672c.479-1.779.042-3.764-1.309-5.162A4.993 4.993 0 0 0 3.783.772l2.898 2.993-.762 2.937-2.837.784L.185 4.492C-.277 6.26.162 8.227 1.505 9.614a4.999 4.999 0 0 0 5.211 1.285zm9.662 2.911l-3.495 3.453 5.764 5.972c.47.488 1.09.731 1.708.731.615 0 1.233-.243 1.707-.731a2.556 2.556 0 0 0 0-3.53l-5.683-5.894zm7.615-10.017L20.322 0 9.502 11.187l1.321 1.365-6.477 6.694-1.48.791-2.091 3.412.532.552 3.301-2.162.765-1.531 6.477-6.693 1.322 1.365 10.82-11.187z"/></svg>