<svg xmlns="http://www.w3.org/2000/svg" width="19" height="24" viewBox="0 0 19 24"><path d="M18.857 18.817q0 1.607-.978 2.538t-2.598.931H3.576q-1.621 0-2.598-.931T0 18.817q0-.71.047-1.386t.188-1.46.355-1.453.576-1.306.83-1.085 1.145-.717 1.493-.268q.121 0 .563.288t.998.643 1.446.643 1.788.288 1.788-.288 1.446-.643.998-.643.563-.288q.817 0 1.493.268t1.145.717.83 1.085.576 1.306.355 1.453.188 1.46.047 1.386zm-4.286-11.96q0 2.129-1.507 3.636T9.428 12t-3.636-1.507-1.507-3.636 1.507-3.636 3.636-1.507 3.636 1.507 1.507 3.636z"/></svg>